<?xml version="1.0" standalone="no"?>
<!DOCTYPE svg PUBLIC "-//W3C//DTD SVG 20010904//EN"
 "http://www.w3.org/TR/2001/REC-SVG-20010904/DTD/svg10.dtd">
<svg version="1.0" xmlns="http://www.w3.org/2000/svg"
 width="1024.000000pt" height="1024.000000pt" viewBox="0 0 1024.000000 1024.000000"
 preserveAspectRatio="xMidYMid meet">
<metadata>
Created by potrace 1.14, written by Peter Selinger 2001-2017
</metadata>
<g transform="translate(0.000000,1024.000000) scale(0.100000,-0.100000)"
fill="#000000" stroke="none">
<path d="M0 5120 l0 -5120 5120 0 5120 0 0 5120 0 5120 -5120 0 -5120 0 0
-5120z m5010 4928 l0 -153 111 2 111 2 -1 144 c-1 81 2 148 7 151 6 3 81 1
168 -4 622 -39 1205 -179 1759 -423 125 -55 385 -184 414 -206 l22 -17 -70
-124 c-39 -69 -70 -128 -68 -133 1 -4 21 -19 44 -32 l42 -25 49 82 c27 46 61
104 76 131 l27 47 47 -27 c75 -43 300 -194 386 -259 43 -32 91 -68 106 -79
119 -88 358 -305 520 -471 192 -198 326 -361 519 -629 20 -27 61 -88 91 -135
29 -47 66 -105 82 -129 l28 -44 -78 -45 c-42 -25 -101 -58 -129 -74 -29 -16
-53 -31 -53 -33 0 -12 45 -95 52 -95 6 0 57 29 230 129 18 11 30 12 37 6 32
-33 207 -398 285 -592 160 -402 283 -887 322 -1265 5 -58 9 -68 25 -68 23 0
25 -16 3 -24 -14 -5 -15 -17 -9 -79 4 -39 10 -129 14 -200 l6 -127 -152 0
-153 0 0 -115 0 -115 153 0 152 0 -2 -62 c-30 -755 -223 -1486 -566 -2150
l-81 -157 -56 31 c-30 17 -87 51 -127 75 -39 24 -76 43 -80 43 -9 0 -57 -90
-51 -95 2 -1 26 -16 53 -32 28 -16 83 -49 123 -72 39 -24 72 -49 72 -56 0 -18
-229 -358 -329 -490 -272 -355 -639 -716 -1016 -996 -105 -78 -297 -207 -377
-253 l-47 -27 -39 68 c-22 37 -54 94 -72 125 -17 32 -35 60 -39 62 -9 6 -91
-42 -91 -54 0 -4 32 -63 70 -130 39 -67 70 -123 70 -125 0 -13 -321 -174 -499
-250 -548 -233 -1208 -383 -1751 -397 l-115 -3 -3 153 -3 152 -109 0 -110 0 0
-155 0 -156 -117 6 c-588 31 -1152 156 -1698 376 -107 43 -508 238 -537 260
-17 13 -15 20 29 94 25 44 59 103 74 131 l29 51 -49 26 -49 27 -50 -88 c-108
-185 -99 -174 -124 -161 -94 50 -425 279 -553 383 -433 351 -789 743 -1079
1186 -95 146 -116 180 -116 189 0 5 56 42 125 81 69 39 125 75 125 80 0 7 -34
72 -46 89 -2 2 -60 -29 -129 -68 -70 -40 -132 -70 -138 -68 -12 5 -155 283
-217 422 -127 282 -243 642 -319 985 -55 252 -111 692 -111 883 l0 67 150 0
150 0 0 115 0 115 -150 0 -150 0 0 68 c0 190 56 630 111 882 77 350 186 684
323 995 57 128 202 408 213 412 7 3 67 -27 134 -66 67 -39 124 -71 128 -71 7
0 51 75 51 88 0 5 -56 42 -125 82 -69 39 -125 76 -125 81 0 10 39 73 139 224
301 456 725 904 1177 1243 108 81 316 221 415 280 43 26 35 34 119 -113 34
-60 65 -113 69 -117 3 -4 27 5 53 20 l47 28 -74 129 c-69 120 -74 131 -57 143
9 8 85 48 167 89 675 341 1360 516 2153 552 l32 1 0 -152z"/>
<path d="M6838 4087 l-48 -21 1 -50 c1 -41 2 -46 9 -25 12 41 41 80 75 100 39
24 23 23 -37 -4z"/>
</g>
</svg>
