<svg xmlns="http://www.w3.org/2000/svg" xmlns:xlink="http://www.w3.org/1999/xlink" version="1.1"
    x="0px" y="0px" viewBox="0 0 380 200" xml:space="preserve">
    
<g>
   <path d="M365.608,313.735l-13.664-4.784c-8.593-3.009-18.079-2.182-26.021,2.266l-10.392,5.82l-23.399-6.686   c1.04-2.759,1.609-5.716,1.609-8.755v-22.44c0-8.177-6.104-15.222-14.197-16.386l-60.444-8.698l55.969-31.341   c6.813-3.815,10.324-11.512,8.736-19.151c-6.849-32.946-15.414-63.691-25.459-91.381c-14.964-41.251-33.148-76.315-55.592-107.197   c-3.13-4.309-8.42-6.031-13.479-4.388c-5.033,1.636-8.285,6.118-8.285,11.418v18.544c-28.609,18.352-54.303,44.382-74.392,75.446   c-21.034,32.527-35.546,70.058-41.965,108.537C55.111,271.63,59.1,324.967,62.481,352.51l-4.668,2.614   c-23.799,13.327-48.408,27.107-57.566,51.989L0,451.075c0,2.005,1.484,3.701,3.473,3.965c24.188,3.214,48.126-0.183,64.038-9.094   l2.149-1.204l43.014,12.29v41.733c0,2.005,1.485,3.701,3.473,3.965c6.44,0.857,12.862,1.276,19.141,1.276   c18.995,0,36.668-3.838,49.475-11.01l176.12-98.626c9.906-5.547,16.06-16.046,16.06-27.399v-37.26   C376.941,322.528,372.387,316.108,365.608,313.735z M278.404,270.688c4.182,0.602,7.336,4.242,7.336,8.468   c0,3.093-1.677,5.954-4.375,7.465l-96.584,54.085c-9.026,5.053-19.906,6.322-29.853,3.481l-25.991-7.426l43.516-24.368   c2.256,4.661,7.019,7.891,12.535,7.891c7.682,0,13.932-6.25,13.932-13.933v-40.98l8.697-4.87L278.404,270.688z M285.74,293.319   v8.278c0,6.099-3.306,11.739-8.627,14.719l-91.522,51.25c-9.539,5.342-21.039,6.685-31.555,3.68L96.64,354.846l22.459-12.577   l33.632,9.609c4.2,1.2,8.536,1.791,12.868,1.791c8.025,0,16.029-2.031,23.09-5.984L285.74,293.319z M275.972,205.208   c0.874,4.205-1.061,8.441-4.813,10.542l-72.239,40.452v-51.013L267,167.066C270.252,179.391,273.25,192.118,275.972,205.208z    M264.85,159.101l-65.93,36.919v-31.936l57.701-32.311C259.511,140.615,262.256,149.732,264.85,159.101z M188.988,12.032   c0-2.704,2.111-3.6,2.758-3.81c0.656-0.213,2.92-0.738,4.536,1.483c21.996,30.267,39.837,64.685,54.542,105.222   c1.089,3.003,2.158,6.05,3.212,9.125l-55.117,30.864V89.073c0-6.291-4.194-11.616-9.932-13.34V12.032z M184.988,83.141   c3.271,0,5.932,2.661,5.932,5.932v217.277c0,3.271-2.661,5.933-5.932,5.933c-3.271,0-5.933-2.662-5.933-5.933V89.073   C179.056,85.802,181.717,83.141,184.988,83.141z M180.988,75.733c-5.738,1.724-9.933,7.049-9.933,13.34v208.44   c-13.85-13.416-45.471-51.107-45.471-115.563c0-65.729,39.226-119.355,55.403-138.672V75.733z M72.522,215.876   c10.761-64.505,43.631-122.972,89.906-161.754c-3.982,5.578-8.274,12.035-12.58,19.278c-14.719,24.759-32.264,63.69-32.264,108.551   c0,44.936,14.893,77.168,27.387,96.294c8.941,13.688,17.853,22.734,23.074,27.447L77.527,356.38   c-1.384,0.774-2.985,0.809-4.399,0.096c-1.417-0.715-2.345-2.031-2.543-3.609C67.882,331.376,62.658,275.007,72.522,215.876z    M61.721,362.104l3.555-1.991c1.131,1.44,2.559,2.653,4.246,3.504c1.802,0.91,3.759,1.363,5.715,1.363   c2.138,0,4.272-0.542,6.198-1.62l5.366-3.005l65.038,18.582c4.398,1.256,8.941,1.876,13.479,1.876   c8.405,0,16.787-2.127,24.182-6.268l91.522-51.25c2.702-1.513,5.041-3.499,6.96-5.81l17.712,5.061l-131.062,73.395   c-4.105,2.299-8.231,4.611-12.309,6.982l-62.346-17.813c-6.831-1.952-14.308-1.082-20.509,2.392l-15.864,8.884   c-13.328,7.463-33.137,10.619-53.805,8.723C19.206,385.914,39.902,374.323,61.721,362.104z M113.933,449.072l-43.676-12.479   c-1.023-0.293-2.122-0.164-3.053,0.356l-3.602,2.017c-13.714,7.68-34.288,10.813-55.603,8.559v-34.539   c4.482,0.445,8.939,0.665,13.322,0.665c17.729,0,34.228-3.584,46.188-10.283l15.864-8.884c4.354-2.439,9.601-3.053,14.403-1.68   l55.185,15.767c-5.311,3.346-10.43,6.866-15.181,10.675l-45.865-13.104c-3.239-0.925-6.641-0.533-9.581,1.101   c-2.942,1.635-5.072,4.317-5.996,7.554c-0.925,3.236-0.534,6.639,1.101,9.581c1.635,2.942,4.317,5.072,7.554,5.996l33.663,9.618   C116.859,442.856,115.275,445.877,113.933,449.072z M130.617,425.518c-2.498,2.399-4.84,4.915-6.996,7.57l-36.43-10.409   c-1.182-0.337-2.161-1.115-2.758-2.189s-0.739-2.316-0.402-3.498c0.338-1.182,1.115-2.161,2.189-2.758   c1.075-0.597,2.316-0.739,3.498-0.401L130.617,425.518z M368.941,366.97c0,8.461-4.586,16.285-11.968,20.418l-176.12,98.627   c-14.841,8.311-37.126,11.685-60.18,9.202v-37.706c4.917,0.499,9.808,0.749,14.614,0.749c18.995,0,36.666-3.837,49.474-11.01   l184.18-103.17V366.97z M364.377,337.498L180.854,440.271c-14.462,8.098-35.991,11.499-58.408,9.372   c10.056-20.935,32.463-33.488,56.095-46.722l151.29-84.723c5.944-3.329,13.041-3.946,19.47-1.696l13.664,4.784   c3.575,1.251,5.977,4.637,5.977,8.424C368.941,332.937,367.192,335.921,364.377,337.498z"/><path d="M189.749,457.836l-18.439,10.326c-1.928,1.08-2.615,3.517-1.536,5.445c0.733,1.309,2.093,2.046,3.494,2.046   c0.661,0,1.332-0.164,1.95-0.51l18.439-10.326c1.928-1.08,2.615-3.517,1.536-5.445   C194.114,457.445,191.678,456.757,189.749,457.836z"/><path d="M274.486,410.384l-18.979,10.628c-1.928,1.08-2.615,3.517-1.536,5.445c0.733,1.309,2.093,2.046,3.494,2.046   c0.661,0,1.332-0.164,1.95-0.51l18.979-10.628c1.928-1.08,2.615-3.517,1.536-5.445   C278.852,409.993,276.414,409.304,274.486,410.384z"/><path d="M341.705,372.743l-16.185,9.063c-1.928,1.08-2.615,3.517-1.536,5.444c0.733,1.31,2.093,2.046,3.494,2.046   c0.661,0,1.332-0.164,1.95-0.51l16.185-9.063c1.928-1.08,2.615-3.517,1.536-5.444S343.635,371.663,341.705,372.743z"/>

        <!-- Red arrow -->
        <line x1="190" y1="100" x2="485" y2="100" stroke="red" stroke-width="2"/>
        <polygon points="485,100 475,90 475,110" fill="red"/>
    </g>
</svg>